<?xml version="1.0" encoding="iso-8859-1"?>
<!-- Generator: Adobe Illustrator 19.0.0, SVG Export Plug-In . SVG Version: 6.00 Build 0)  -->
<svg version="1.1" id="Capa_1" xmlns="http://www.w3.org/2000/svg" xmlns:xlink="http://www.w3.org/1999/xlink" x="0px" y="0px"
	 viewBox="0 0 512 512" style="enable-background:new 0 0 512 512;" xml:space="preserve">
<circle style="fill:#4FD9E0;" cx="256" cy="256" r="256"/>
<path style="fill:#16A9C7;" d="M298.718,508.432c113.99-19.151,202.411-113.621,212.336-230.486L446.108,213L65.892,244.333
	l62.412,62.412l-26.828,4.445L298.718,508.432z"/>
<path style="fill:#7369C3;" d="M71.759,225.667l7.197,42.21c6.545,38.383,39.809,66.456,78.747,66.456l0,0
	c40.029,0,73.877-29.626,79.179-69.302l5.261-39.365H71.759V225.667z"/>
<g>
	<path style="fill:#4B469B;" d="M440.241,225.667l-7.197,42.21c-6.545,38.383-39.809,66.456-78.747,66.456l0,0
		c-40.029,0-73.877-29.626-79.179-69.302l-5.261-39.365h170.384V225.667z"/>
	<rect x="65.892" y="213" style="fill:#4B469B;" width="380.21" height="31.33"/>
</g>
<rect x="255.57" y="213" style="fill:#112742;" width="190.54" height="31.33"/>
<g>
</g>
<g>
</g>
<g>
</g>
<g>
</g>
<g>
</g>
<g>
</g>
<g>
</g>
<g>
</g>
<g>
</g>
<g>
</g>
<g>
</g>
<g>
</g>
<g>
</g>
<g>
</g>
<g>
</g>
</svg>
