<svg version="1.2" xmlns="http://www.w3.org/2000/svg" xmlns:xlink="http://www.w3.org/1999/xlink" overflow="visible" preserveAspectRatio="none" viewBox="0 0 24 24" width="16" height="16"><g><path xmlns:default="http://www.w3.org/2000/svg" id="chevron-up" d="M20.19,15.47c0.26-0.26,0.26-0.69,0-0.95c0,0,0,0,0,0l-7.72-7.71c-0.25-0.26-0.66-0.27-0.92-0.02  c-0.01,0.01-0.01,0.01-0.02,0.02l-7.72,7.71c-0.26,0.26-0.26,0.69,0,0.95c0,0,0,0,0,0l1.73,1.72c0.25,0.26,0.66,0.27,0.92,0.02  c0.01-0.01,0.01-0.01,0.02-0.02L12,11.66l5.53,5.53c0.25,0.26,0.66,0.27,0.92,0.02c0.01-0.01,0.01-0.01,0.02-0.02l1.73-1.72l0,0  H20.19z" style="fill: rgb(51, 51, 51);" vector-effect="non-scaling-stroke"/></g></svg>